<?xml version="1.0" encoding="UTF-8"?>
<svg width="200px" height="179px" viewBox="0 0 200 179" version="1.1" xmlns="http://www.w3.org/2000/svg" xmlns:xlink="http://www.w3.org/1999/xlink">
    <!-- Generator: Sketch 47.1 (45422) - http://www.bohemiancoding.com/sketch -->
    <title>Logo</title>
    <desc>Created with Sketch.</desc>
    <defs></defs>
    <g id="Symbols" stroke="none" stroke-width="1" fill="none" fill-rule="evenodd">
        <g id="Logo">
            <g id="Group-3">
                <polygon id="Path" fill="#4E41A2" points="29.3778911 161.769462 20.2020202 161.769462 36.7695648 55.5555556 102.020202 177.777778 91.5699047 177.777778 41.6123855 84.014784"></polygon>
                <polygon id="Path" fill="#FF6580" points="109.695849 156.884027 135.088407 108.491795 135.342333 110.274666 137.373737 123.773552 109.695849 176.495615 31.9946228 29.7907441 10.6648743 169.364128 36.5652831 169.364128 45.1987528 112.312234 47.2301574 116.132673 52.5625945 126.065816 44.436976 178.787879 0 178.787879 26.9161112 1.01010101 28.4396647 3.55706058 101.316305 141.347573"></polygon>
                <polygon id="Path" fill="#4E41A2" points="46.7786779 0 110.031003 119.36195 145.594559 53.3048027 164.646465 178.787879 155.50155 178.787879 140.768077 81.8700558 110.031003 139.000562 36.3636364 0"></polygon>
                <polygon id="MIGHT" fill="#FF6580" points="153.290974 0 172.944499 0 200 178.787879 172.944499 178.787879 172.178777 174.962175 152.014771 41.3175982 159.161508 27.8001124 161.458673 43.1029266 180.856957 169.351143 189.279896 169.351143 184.940806 140.02075 165.797763 15.5578611 165.032041 9.4367354 158.906267 9.4367354 150.483328 24.9945965 149.717606 26.7799248 127.256435 68.6076168 110.410557 100.48848 105.050505 90.7966974 117.046812 68.6076168"></polygon>
            </g>
        </g>
    </g>
</svg>