<?xml version="1.0" encoding="UTF-8"?>
<svg width="200px" height="180px" viewBox="0 0 200 180" version="1.1" xmlns="http://www.w3.org/2000/svg" xmlns:xlink="http://www.w3.org/1999/xlink">
    <!-- Generator: Sketch 47.1 (45422) - http://www.bohemiancoding.com/sketch -->
    <title>Logo-Red</title>
    <desc>Created with Sketch.</desc>
    <defs></defs>
    <g id="Symbols" stroke="none" stroke-width="1" fill="none" fill-rule="evenodd">
        <g id="Logo-Red" fill="#FF6580">
            <g id="Logo">
                <polygon id="Path" points="29.2923899 163.536849 20 163.536849 36.7779261 57.0132815 102.857143 179.591837 92.2741433 179.591837 41.682243 85.5554815"></polygon>
                <polygon id="Path" points="109.511487 157.464476 134.861368 108.578446 135.114867 110.37951 137.142857 124.016139 109.511487 177.276183 31.9408503 29.0743231 10.6469501 170.071926 36.5038289 170.071926 45.1227885 112.437869 47.150779 116.297293 52.474254 126.331793 44.3622921 179.591837 0 179.591837 26.870874 0 28.3918669 2.57294895 101.146026 141.769487"></polygon>
                <polygon id="Path" points="47.5813296 0 110.975955 119.898687 146.619519 53.5444991 165.714286 179.591837 156.548798 179.591837 141.782178 82.238202 110.975955 139.625608 37.1428571 0"></polygon>
                <polygon id="MIGHT" points="153.617512 0 173.133641 0 200 179.591837 173.133641 179.591837 172.373272 175.74893 152.35023 41.5033917 159.447005 27.9251215 161.728111 43.2967481 180.990783 170.112667 189.354839 170.112667 185.046083 140.650383 166.036866 15.6278203 165.276498 9.4791697 159.193548 9.4791697 150.829493 25.10699 150.069124 26.9003464 127.764977 68.9161257 111.036866 100.940348 105.714286 91.2049841 117.626728 68.9161257"></polygon>
            </g>
        </g>
    </g>
</svg>